grf
version=1
nRows=6
nColumns=37
inDegrees=no
endheader
time	ground_force_1_vx	ground_force_1_vy	ground_force_1_vz	ground_force_1_px	ground_force_1_py	ground_force_1_pz	ground_moment_1_mx	ground_moment_1_my	ground_moment_1_mz	ground_force_2_vx	ground_force_2_vy	ground_force_2_vz	ground_force_2_px	ground_force_2_py	ground_force_2_pz	ground_moment_2_mx	ground_moment_2_my	ground_moment_2_mz	ground_force_3_vx	ground_force_3_vy	ground_force_3_vz	ground_force_3_px	ground_force_3_py	ground_force_3_pz	ground_moment_3_mx	ground_moment_3_my	ground_moment_3_mz	ground_force_4_vx	ground_force_4_vy	ground_force_4_vz	ground_force_4_px	ground_force_4_py	ground_force_4_pz	ground_moment_4_mx	ground_moment_4_my	ground_moment_4_mz
      0.00000000	      0.00000000	     -0.00000000	      0.00000000	      0.00000000	      0.00000000	      0.00000000	      0.00000000	      0.00000000	      0.00000000	    -13.92188168	     -0.19841196	   -772.42449951	   -278.43343527	  -1123.95153509	      0.00000000	      0.00000000	      0.00000000	   1632.41141989	      0.00000000	     -0.00000000	      0.00000000	      0.00000000	      0.00000000	      0.00000000	      0.00000000	      0.00000000	      0.00000000	    -34.72969293	     16.44950598	     74.73338318	    607.37929025	   -566.50057945	      0.00000000	      0.00000000	     -0.00000000	    -97.93141864
      0.01000000	      0.00000000	     -0.00000000	      0.00000000	      0.00000000	      0.00000000	      0.00000000	      0.00000000	      0.00000000	      0.00000000	    -15.78527546	      1.86675823	   -778.84063721	   -277.13205812	  -1124.69780757	      0.00000000	      0.00000000	      0.00000000	   1462.28836345	      0.00000000	     -0.00000000	      0.00000000	      0.00000000	      0.00000000	      0.00000000	      0.00000000	      0.00000000	      0.00000000	    -34.71477751	     15.92955034	     76.04141235	    602.45514573	   -564.83777736	      0.00000000	      0.00000000	     -0.00000000	     -9.57718796
      0.02000000	      0.00000000	     -0.00000000	      0.00000000	      0.00000000	      0.00000000	      0.00000000	      0.00000000	      0.00000000	      0.00000000	    -16.42946243	      3.57993054	   -784.04003906	   -275.45410204	  -1124.38222872	      0.00000000	      0.00000000	      0.00000000	   1053.31962085	      0.00000000	     -0.00000000	      0.00000000	      0.00000000	      0.00000000	      0.00000000	      0.00000000	      0.00000000	      0.00000000	    -35.13790374	     15.76407358	     76.76399994	    601.81766666	   -563.84448764	      0.00000000	      0.00000000	     -0.00000000	    -24.54443413
      0.03000000	      0.00000000	     -0.00000000	      0.00000000	      0.00000000	      0.00000000	      0.00000000	      0.00000000	      0.00000000	      0.00000000	    -18.34827232	      4.30248070	   -790.33996582	   -274.32451824	  -1126.46027479	      0.00000000	      0.00000000	      0.00000000	    914.75242841	      0.00000000	     -0.00000000	      0.00000000	      0.00000000	      0.00000000	      0.00000000	      0.00000000	      0.00000000	      0.00000000	    -34.88404323	     16.21367759	     76.15661621	    600.41080798	   -563.11966037	      0.00000000	      0.00000000	     -0.00000000	    -15.87966428
      0.04000000	      0.00000000	     -0.00000000	      0.00000000	      0.00000000	      0.00000000	      0.00000000	      0.00000000	      0.00000000	      0.00000000	    -20.03400230	      5.62958813	   -791.73455811	   -273.38173831	  -1126.66749480	      0.00000000	      0.00000000	      0.00000000	    489.09732158	      0.00000000	     -0.00000000	      0.00000000	      0.00000000	      0.00000000	      0.00000000	      0.00000000	      0.00000000	      0.00000000	    -34.64865352	     16.18507497	     77.06182861	    597.60077542	   -562.01951581	      0.00000000	      0.00000000	     -0.00000000	   -203.28207649
      0.05000000	      0.00000000	     -0.00000000	      0.00000000	      0.00000000	      0.00000000	      0.00000000	      0.00000000	      0.00000000	      0.00000000	    -19.99259377	      6.33297396	   -793.46453857	   -272.26754362	  -1128.06153580	      0.00000000	      0.00000000	      0.00000000	    527.08739930	      0.00000000	     -0.00000000	      0.00000000	      0.00000000	      0.00000000	      0.00000000	      0.00000000	      0.00000000	      0.00000000	    -34.88880014	     16.36982078	     74.10537720	    610.16572440	   -567.36532111	      0.00000000	      0.00000000	     -0.00000000	   -127.08969713
